# xmcd
#
# Track frame offsets:
#	150
#	22466
#	68876
#	119008
#	149915
#	168892
#	192465
#	215956
#	266280
#
# Disc length: 3881 seconds
#
# Revision: 1
# Processed by: cddbd v1.5.2PL0 Copyright (c) Steve Scherf et al.
# Submitted via: audiograbber 1.83.01
#
DISCID=9b0f2709
DTITLE=Grateful Dead - 90-03-26 Knickerbocker Arena, Albany NY
DYEAR=1900
DGENRE=
TTITLE0=Built To Last
TTITLE1=Victim Or The Crime
TTITLE2=China Cat Sunflower > I Know You Rider
TTITLE3=Men Smart Women Smarter
TTITLE4=I Need A Miracle
TTITLE5=Mr Fantasy > Hey Jude
TTITLE6=Gimme Some Lovin
TTITLE7=Morning Dew
TTITLE8=Brokedown Palace
EXTD=
EXTT0=
EXTT1=
EXTT2=
EXTT3=
EXTT4=
EXTT5=
EXTT6=
EXTT7=
EXTT8=
PLAYORDER=
